<?xml version="1.0" standalone="no"?>
<!DOCTYPE svg PUBLIC "-//W3C//DTD SVG 20010904//EN"
 "http://www.w3.org/TR/2001/REC-SVG-20010904/DTD/svg10.dtd">
<svg version="1.0" xmlns="http://www.w3.org/2000/svg"
 width="1390.000000pt" height="1390.000000pt" viewBox="0 0 1390.000000 1390.000000"
 preserveAspectRatio="xMidYMid meet">
<metadata>
Created by potrace 1.11, written by Peter Selinger 2001-2013
</metadata>
<g transform="translate(0.000000,1390.000000) scale(0.100000,-0.100000)"
fill="#000000" stroke="none">
<path d="M6922 12647 c-12 -23 -22 -48 -22 -54 0 -7 -4 -13 -10 -13 -5 0 -10
-8 -10 -18 0 -10 -4 -22 -9 -27 -20 -23 -114 -295 -127 -370 -2 -16 -7 -37 -9
-45 -16 -59 -21 -195 -11 -291 10 -99 61 -240 114 -319 28 -42 101 -120 112
-120 12 0 78 76 114 133 124 195 145 452 60 743 -38 131 -144 387 -172 416 -4
4 -17 -12 -30 -35z"/>
<path d="M6094 12603 c-3 -16 -10 -44 -15 -63 -24 -101 -34 -188 -34 -311 1
-99 3 -110 33 -172 33 -67 86 -122 145 -150 40 -20 49 -13 81 68 70 175 56
291 -58 480 -43 72 -123 175 -136 175 -5 0 -12 -12 -16 -27z"/>
<path d="M7757 12608 c-8 -13 -26 -36 -40 -52 -40 -46 -115 -178 -143 -252
-39 -105 -31 -227 25 -346 34 -74 34 -74 83 -45 81 47 147 137 163 222 8 43 8
195 0 235 -3 14 -7 45 -10 69 -10 82 -41 191 -55 191 -4 0 -14 -10 -23 -22z"/>
<path d="M5029 12275 c0 -11 -2 -28 -4 -38 -15 -79 -22 -339 -11 -417 20 -144
19 -142 41 -216 54 -188 199 -367 349 -429 l33 -14 22 47 c36 77 50 158 47
267 -2 55 -6 111 -9 124 -32 123 -63 195 -128 301 -88 142 -338 417 -340 375z"/>
<path d="M8774 12204 c-221 -225 -353 -444 -380 -633 -7 -47 -8 -204 -1 -231
14 -58 32 -110 48 -143 l20 -38 61 33 c163 87 291 268 337 478 26 120 34 375
16 525 -4 39 -8 76 -8 83 0 6 -2 12 -4 12 -3 0 -42 -38 -89 -86z"/>
<path d="M4130 11775 c0 -77 66 -308 117 -408 47 -94 130 -158 238 -182 88
-20 88 -19 82 103 -2 59 -10 124 -16 144 -24 78 -83 147 -214 254 -24 20 -189
114 -199 114 -4 0 -8 -11 -8 -25z"/>
<path d="M9694 11769 c-170 -91 -308 -218 -338 -312 -3 -9 -5 -18 -4 -20 1 -1
-4 -12 -11 -25 -19 -36 -24 -208 -6 -225 30 -31 178 21 243 84 45 44 77 100
113 200 46 126 89 329 71 329 -5 0 -36 -14 -68 -31z"/>
<path d="M5927 11573 c-6 -9 -32 -119 -42 -178 -15 -87 -20 -179 -20 -360 1
-177 3 -208 22 -270 48 -154 144 -264 293 -334 59 -28 64 -29 76 -13 8 9 14
21 14 25 0 5 7 23 14 40 39 84 75 234 79 331 7 131 -26 238 -118 382 -43 67
-144 202 -189 253 -90 101 -124 133 -129 124z"/>
<path d="M7929 11549 c-147 -154 -289 -349 -349 -482 -40 -88 -44 -114 -44
-237 0 -117 21 -212 74 -348 l32 -81 51 19 c158 60 277 200 322 377 31 122 23
473 -15 648 -5 22 -12 55 -15 74 -11 64 -19 69 -56 30z"/>
<path d="M3254 11017 c34 -258 136 -539 247 -677 113 -141 293 -250 413 -250
22 0 26 5 32 47 4 25 4 85 1 133 -18 284 -233 543 -631 762 l-69 38 7 -53z"/>
<path d="M10595 11042 c-445 -251 -648 -506 -647 -812 0 -52 2 -104 4 -115 7
-28 39 -30 119 -6 232 71 406 279 503 601 14 47 27 96 30 110 2 14 9 45 14 70
6 25 13 63 16 85 4 23 8 51 11 63 5 26 -9 27 -50 4z"/>
<path d="M5198 10815 c-11 -11 15 -198 47 -335 28 -125 96 -223 187 -270 51
-27 128 -44 142 -30 5 5 11 52 13 103 4 146 -26 231 -118 331 -72 79 -256 216
-271 201z"/>
<path d="M8605 10766 c-96 -65 -195 -160 -241 -231 -52 -82 -70 -205 -48 -333
5 -33 6 -33 46 -27 127 22 222 107 268 241 39 114 84 404 63 404 -5 0 -44 -25
-88 -54z"/>
<path d="M4326 10613 c4 -71 15 -176 19 -183 2 -3 6 -29 10 -57 8 -65 54 -229
85 -303 84 -199 276 -375 441 -405 41 -8 44 -4 56 73 36 236 -61 471 -283 681
-73 70 -228 191 -297 231 l-35 21 4 -58z"/>
<path d="M9490 10618 c-224 -154 -393 -326 -466 -477 -50 -104 -68 -180 -68
-291 -1 -111 6 -166 23 -183 20 -20 129 22 221 84 211 141 338 428 366 832 4
48 5 87 3 87 -2 0 -38 -23 -79 -52z"/>
<path d="M6902 10543 c-44 -87 -154 -338 -184 -423 -160 -452 -147 -726 48
-985 51 -68 114 -131 161 -162 27 -18 39 -11 127 75 98 95 165 207 207 342 19
61 24 98 24 200 0 145 -23 271 -85 459 -59 180 -221 548 -249 565 -5 3 -27
-29 -49 -71z"/>
<path d="M2660 10305 c0 -18 82 -173 128 -242 130 -197 220 -256 374 -248 99
5 101 11 52 150 -46 131 -121 206 -270 269 -110 46 -284 90 -284 71z"/>
<path d="M11154 10300 c-74 -15 -198 -61 -272 -100 -114 -62 -183 -151 -218
-283 -26 -100 -26 -100 102 -100 133 0 220 63 340 245 61 92 124 213 124 238
0 11 -17 11 -76 0z"/>
<path d="M3756 9628 c29 -81 95 -214 134 -269 56 -81 163 -134 255 -126 l40 3
-1 49 c-4 152 -86 264 -253 346 -70 34 -165 69 -187 69 -10 0 -7 -19 12 -72z"/>
<path d="M10043 9667 c-157 -64 -244 -130 -289 -218 -26 -53 -54 -159 -49
-187 2 -9 4 -21 4 -26 1 -5 32 -6 70 -3 139 11 214 76 306 267 28 56 75 180
75 195 0 12 -41 2 -117 -28z"/>
<path d="M4584 9300 c4 -55 9 -106 11 -113 2 -6 6 -30 9 -52 25 -204 123 -462
227 -602 183 -246 458 -368 714 -318 103 20 145 40 145 70 0 26 -13 95 -36
192 -46 193 -149 383 -265 487 -97 87 -277 201 -454 288 -95 46 -334 148 -349
148 -5 0 -6 -45 -2 -100z"/>
<path d="M9275 9390 c-11 -5 -65 -28 -120 -51 -204 -84 -443 -214 -565 -306
-72 -55 -157 -141 -195 -199 -96 -144 -166 -343 -188 -536 -5 -37 -4 -38 49
-57 161 -61 351 -47 514 38 295 153 487 495 535 951 18 179 18 181 -30 160z"/>
<path d="M2690 9382 c0 -10 103 -176 122 -196 7 -8 24 -29 38 -47 38 -50 118
-127 158 -154 73 -48 194 -62 280 -34 31 10 33 13 27 42 -14 65 -77 180 -126
229 -64 64 -190 121 -314 143 -16 2 -39 7 -50 9 -58 11 -135 16 -135 8z"/>
<path d="M11079 9377 c-87 -16 -235 -61 -279 -85 -93 -51 -168 -146 -209 -266
-23 -64 -19 -69 51 -83 152 -32 265 26 414 210 61 76 144 205 144 224 0 11
-62 11 -121 0z"/>
<path d="M2175 8775 c-38 -7 -90 -18 -114 -25 l-44 -11 44 -40 c85 -77 270
-191 359 -221 101 -33 226 -14 306 47 l34 26 -17 30 c-32 55 -130 139 -200
172 -63 29 -76 32 -183 33 -63 1 -146 -4 -185 -11z"/>
<path d="M11400 8771 c-73 -23 -128 -59 -194 -127 -68 -69 -77 -91 -45 -115
13 -10 34 -23 47 -29 12 -5 34 -16 49 -22 14 -7 64 -13 112 -13 80 0 92 3 171
41 94 45 229 134 291 191 45 42 42 47 -36 63 -27 6 -61 13 -75 16 -14 3 -79 8
-145 9 -94 3 -132 0 -175 -14z"/>
<path d="M3507 8644 c-1 -2 -28 -4 -60 -5 -32 -1 -60 -5 -62 -9 -4 -6 150
-168 225 -236 117 -105 291 -206 415 -240 122 -33 314 -23 408 22 32 15 35 19
26 43 -26 71 -92 165 -155 220 -112 97 -273 169 -419 186 -22 3 -53 8 -70 11
-28 6 -303 13 -308 8z"/>
<path d="M10157 8644 c-1 -1 -33 -5 -72 -9 -197 -19 -367 -86 -486 -192 -30
-26 -57 -52 -61 -58 -3 -5 -18 -23 -31 -39 -26 -30 -77 -127 -77 -146 0 -6 12
-15 28 -21 15 -7 36 -15 47 -20 46 -18 126 -27 215 -24 186 7 345 78 541 241
77 64 249 239 249 253 0 4 -28 9 -62 11 -70 3 -288 6 -291 4z"/>
<path d="M2850 8182 c-92 -12 -293 -76 -328 -105 -16 -12 41 -51 154 -103 139
-65 240 -93 334 -91 73 2 93 7 137 31 29 16 69 45 89 65 l36 36 -49 43 c-117
105 -232 143 -373 124z"/>
<path d="M10893 8180 c-85 -18 -238 -112 -258 -160 -8 -19 59 -80 123 -112 66
-33 198 -33 297 0 81 27 262 111 306 143 l31 22 -67 28 c-61 27 -140 53 -194
64 -11 3 -31 7 -43 10 -47 11 -155 14 -195 5z"/>
<path d="M2293 7748 c-115 -17 -370 -121 -342 -139 109 -74 362 -159 471 -159
99 0 209 52 258 120 26 37 22 43 -61 99 -109 73 -208 97 -326 79z"/>
<path d="M11429 7741 c-72 -18 -163 -69 -209 -116 l-30 -31 42 -43 c24 -24 68
-55 98 -70 48 -23 67 -26 150 -25 79 1 112 6 195 33 100 33 260 105 271 122 8
13 -145 83 -246 112 -116 34 -190 39 -271 18z"/>
<path d="M4997 7724 c-1 -1 -56 -4 -122 -8 -171 -9 -295 -23 -295 -33 0 -7 88
-149 106 -173 164 -207 231 -277 357 -371 159 -119 322 -178 507 -184 160 -5
282 27 397 106 53 36 143 125 143 142 0 34 -165 219 -280 313 -98 81 -244 154
-340 170 -14 2 -46 9 -73 14 -46 10 -392 30 -400 24z"/>
<path d="M8767 7724 c-1 -1 -53 -4 -116 -8 -62 -3 -116 -8 -120 -10 -3 -2 -28
-7 -56 -11 -87 -11 -195 -52 -297 -111 -98 -57 -268 -223 -347 -338 l-33 -48
68 -67 c79 -76 137 -112 244 -148 91 -31 250 -40 348 -19 34 8 62 12 62 10 0
-5 132 46 185 72 191 96 417 319 568 563 26 41 45 76 44 77 -2 3 -43 8 -132
19 -73 8 -412 24 -418 19z"/>
<path d="M3505 7654 c-77 -12 -105 -16 -170 -30 -47 -9 -218 -63 -234 -73 -11
-7 6 -23 70 -65 156 -101 318 -180 436 -212 32 -8 67 -18 78 -21 48 -13 242
-12 305 3 73 16 190 70 233 106 l28 23 -43 51 c-83 99 -219 181 -348 209 -100
22 -242 26 -355 9z"/>
<path d="M10136 7663 c-1 -2 -22 -5 -46 -8 -114 -15 -270 -88 -357 -168 -40
-37 -90 -105 -82 -111 61 -48 135 -85 224 -114 74 -24 288 -22 380 2 137 36
303 115 463 219 70 46 89 63 78 69 -47 26 -259 81 -382 99 -70 11 -271 19
-278 12z"/>
<path d="M2808 7135 c-2 -1 -39 -5 -83 -8 -127 -9 -259 -57 -415 -151 -93 -56
-300 -214 -300 -229 0 -4 85 -23 150 -33 14 -2 35 -6 47 -9 81 -19 319 -25
428 -12 189 23 384 137 481 282 40 58 40 59 -61 105 -55 25 -235 65 -247 55z"/>
<path d="M10991 7124 c-38 -7 -85 -17 -105 -24 -42 -14 -123 -57 -131 -70 -10
-15 42 -87 110 -153 77 -75 190 -136 310 -168 110 -29 374 -31 510 -5 11 2 40
7 65 11 25 4 66 13 93 19 l47 12 -27 25 c-170 156 -422 302 -598 344 -64 16
-207 20 -274 9z"/>
<path d="M4548 6765 c-1 -2 -23 -6 -48 -10 -67 -10 -211 -60 -317 -111 -101
-48 -263 -144 -263 -155 0 -15 246 -94 350 -112 127 -23 170 -28 255 -28 133
1 239 27 358 89 76 39 200 153 191 176 -15 39 -144 107 -257 135 -67 17 -257
28 -269 16z"/>
<path d="M9130 6763 c-89 -14 -253 -87 -294 -131 -23 -27 -13 -45 65 -115 67
-61 171 -117 264 -143 73 -20 277 -28 360 -14 33 6 76 13 95 16 70 11 360 99
360 110 0 9 -138 93 -226 137 -153 77 -212 98 -358 132 -54 12 -207 17 -266 8z"/>
<path d="M6005 6464 c-241 -54 -393 -159 -568 -393 -86 -115 -181 -275 -167
-279 10 -4 184 22 229 34 274 68 429 144 562 275 26 26 95 121 112 154 21 42
48 124 54 161 4 29 2 32 -34 41 -40 10 -154 14 -188 7z"/>
<path d="M7707 6460 c-20 -4 -39 -9 -42 -12 -3 -2 2 -31 11 -64 57 -221 226
-390 486 -488 105 -39 182 -60 293 -81 17 -3 39 -7 51 -10 11 -2 44 -7 74 -11
62 -8 62 -10 1 94 -47 81 -137 207 -200 281 -112 132 -286 247 -426 281 -58
15 -193 20 -248 10z"/>
<path d="M3230 6353 c-98 -25 -183 -90 -277 -213 -55 -72 -113 -165 -113 -180
0 -18 165 5 300 42 210 56 319 155 337 307 l5 48 -44 7 c-63 10 -145 5 -208
-11z"/>
<path d="M10432 6362 c-20 -3 -22 -7 -17 -43 13 -87 49 -154 113 -215 68 -63
270 -127 474 -149 25 -3 49 -2 52 3 10 17 -117 197 -193 272 -81 81 -133 111
-223 129 -51 11 -148 12 -206 3z"/>
<path d="M4659 5834 c-223 -51 -406 -218 -547 -499 -67 -133 -130 -291 -120
-301 7 -7 200 62 303 109 116 52 266 151 333 218 109 110 182 250 199 380 14
106 11 110 -55 108 -31 -1 -82 -8 -113 -15z"/>
<path d="M9065 5831 c-8 -27 4 -125 22 -181 84 -250 290 -429 648 -563 66 -24
132 -47 147 -51 l28 -6 -26 72 c-45 128 -121 284 -189 387 -145 220 -350 350
-567 360 -49 2 -57 0 -63 -18z"/>
<path d="M3818 5835 c-2 -1 -23 -5 -48 -8 -161 -20 -270 -103 -363 -279 -50
-93 -99 -242 -82 -246 24 -6 217 76 309 130 167 99 226 188 226 341 0 46 -3
56 -19 60 -11 3 -21 4 -23 2z"/>
<path d="M10042 5819 c-25 -68 12 -209 74 -279 59 -66 251 -176 383 -219 80
-26 85 -26 77 2 -4 12 -8 29 -11 37 -11 48 -70 182 -104 239 -76 129 -190 208
-326 226 -27 4 -58 9 -68 12 -11 3 -20 -3 -25 -18z"/>
<path d="M1293 4320 c-126 -42 -232 -152 -269 -278 -24 -81 -24 -1202 -1
-1283 40 -134 151 -243 290 -284 49 -14 99 -16 350 -13 l292 3 69 35 c122 61
204 157 224 262 4 18 7 191 7 383 l0 350 -312 3 -311 2 0 -105 0 -105 104 0
c92 0 104 -2 105 -17 3 -75 0 -413 -4 -433 -21 -109 -101 -171 -213 -166 -56
3 -102 24 -139 64 -59 62 -58 49 -59 637 -1 297 2 559 6 583 11 61 54 117 112
147 46 23 61 25 184 25 73 0 154 -5 178 -11 62 -16 106 -63 129 -139 l18 -60
104 0 105 0 -6 43 c-16 113 -45 194 -90 245 -40 48 -53 58 -101 84 -82 44
-124 48 -430 47 -248 -1 -298 -4 -342 -19z"/>
<path d="M8929 4333 c-1 -12 -1 -1836 0 -1855 1 -17 33 -18 521 -18 l520 0 0
105 0 105 -309 0 c-238 0 -310 3 -313 13 -4 10 -3 578 1 600 0 4 93 7 206 7
129 0 205 4 206 10 0 6 1 48 1 95 0 47 -1 90 -1 95 -1 6 -77 10 -209 10 l-207
0 1 308 c1 169 2 310 3 315 0 4 141 7 311 7 l310 0 0 105 0 105 -520 0 c-286
0 -520 -3 -521 -7z"/>
<path d="M2679 3908 c-1 -17 -1 -1419 0 -1435 1 -10 50 -13 209 -13 l207 0 1
433 c0 470 1 480 56 536 63 64 70 66 331 69 l237 3 0 211 0 210 -167 -4 c-166
-3 -169 -4 -235 -36 -99 -48 -170 -141 -199 -258 -6 -27 -15 -52 -18 -56 -4
-4 -6 72 -6 170 l0 177 -207 3 c-163 2 -208 0 -209 -10z"/>
<path d="M4213 3901 c-126 -43 -233 -154 -270 -280 -23 -79 -22 -786 2 -866
37 -129 152 -240 287 -280 49 -14 101 -16 355 -13 l298 3 60 28 c129 60 190
155 230 355 l7 32 -106 0 c-58 0 -106 -3 -107 -7 -10 -116 -47 -168 -134 -192
-41 -10 -288 -14 -338 -4 -40 8 -123 87 -138 130 -6 19 -12 88 -13 152 l-1
116 416 3 417 2 -2 258 c-2 240 -4 261 -25 315 -40 101 -109 174 -221 233
l-55 29 -305 2 c-270 1 -311 0 -357 -16z m433 -214 c41 -21 80 -65 99 -110 14
-33 23 -194 16 -274 -1 -10 -49 -13 -205 -13 -154 0 -205 3 -208 13 -12 30 1
245 16 278 25 58 86 112 136 122 40 8 115 0 146 -16z"/>
<path d="M5865 3896 c-66 -24 -83 -34 -138 -83 -51 -44 -93 -106 -118 -172
-20 -54 -21 -71 -20 -453 1 -371 3 -401 21 -450 46 -123 148 -221 268 -258 60
-19 92 -20 348 -20 288 1 328 6 404 45 103 53 180 179 204 333 l6 42 -103 0
-103 0 -12 -60 c-16 -76 -58 -122 -127 -139 -27 -7 -107 -11 -189 -10 -157 1
-188 10 -245 71 -44 47 -54 86 -55 218 l-1 115 417 3 416 2 -2 258 c-2 241 -4
261 -25 315 -29 75 -91 150 -161 197 -98 66 -117 69 -438 69 -272 0 -290 -2
-347 -23z m427 -205 c96 -42 130 -108 130 -260 0 -58 0 -114 -1 -124 -1 -16
-16 -17 -208 -15 l-208 3 2 132 c1 114 4 137 21 165 64 103 167 141 264 99z"/>
<path d="M7259 3903 c-1 -24 -1 -1414 0 -1430 1 -10 50 -13 209 -13 l207 0 1
538 c0 567 1 580 47 632 44 50 85 72 143 75 93 6 168 -39 206 -122 18 -40 19
-73 19 -583 l0 -540 209 0 208 0 0 543 c0 342 -3 560 -10 592 -30 143 -148
269 -291 310 -46 13 -92 16 -230 13 -150 -3 -176 -6 -205 -23 -34 -21 -82 -84
-82 -110 0 -8 -4 -15 -8 -15 -4 0 -8 33 -7 73 l0 72 -207 3 c-193 2 -208 1
-209 -15z"/>
<path d="M10389 3913 c0 -8 0 -1414 1 -1441 0 -10 45 -12 207 -10 l208 3 0
435 c1 397 3 438 19 472 32 67 98 117 161 124 16 1 123 3 238 3 l207 1 0 211
0 211 -162 -4 c-142 -3 -171 -7 -222 -27 -105 -42 -186 -144 -221 -277 -8 -32
-16 -58 -18 -60 -1 -2 -2 80 -2 181 l1 185 -208 0 c-114 0 -208 -3 -209 -7z"/>
<path d="M11915 3903 c-142 -43 -248 -181 -271 -352 l-7 -51 104 0 104 0 18
62 c21 70 66 122 120 137 44 12 297 12 342 0 47 -13 104 -64 126 -114 15 -32
19 -66 19 -167 l0 -128 -239 0 c-210 0 -246 -2 -302 -20 -75 -23 -102 -40
-169 -104 -163 -156 -164 -415 -2 -582 93 -96 171 -122 376 -123 86 -1 172 1
190 5 47 8 112 66 126 112 20 62 25 55 22 -33 l-3 -85 210 0 210 0 -2 568 c-2
517 -4 571 -20 615 -47 124 -153 224 -278 261 -76 23 -598 22 -674 -1z m558
-940 c-3 -136 -17 -184 -67 -232 -60 -59 -162 -74 -235 -37 -164 86 -141 322
37 376 15 5 81 9 147 9 l120 1 -2 -117z"/>
</g>
</svg>
